<svg width="263" height="194" viewBox="0 0 263 194" fill="none" xmlns="http://www.w3.org/2000/svg">
<g clip-path="url(#clip0_1_6)">
<path d="M253.066 193.206H15.7381C15.7381 193.206 6.30233 196.286 1.09755 171.782C-4.10723 147.278 22.68 140.711 29.0494 119.55C35.4188 98.3886 7.63149 102.843 9.96739 73.8847C12.3033 44.9261 50.487 44.3668 69.0097 48.2688C87.5324 52.1707 85.2163 38.8001 106.634 16.5203C128.052 -5.75962 160.452 -3.52242 176.652 13.7369C192.852 30.9963 187.654 48.8215 207.914 48.8215C228.173 48.8215 246.696 52.7234 258.849 90.032C271.003 127.341 248.788 144.396 249.19 161.214C249.53 171.972 250.827 182.679 253.066 193.206V193.206Z" fill="#92E3A9"/>
<path opacity="0.6" d="M253.066 193.206H15.7381C15.7381 193.206 6.30233 196.286 1.09755 171.782C-4.10723 147.278 22.68 140.711 29.0494 119.55C35.4188 98.3886 7.63149 102.843 9.96739 73.8847C12.3033 44.9261 50.487 44.3668 69.0097 48.2688C87.5324 52.1707 85.2163 38.8001 106.634 16.5203C128.052 -5.75962 160.452 -3.52242 176.652 13.7369C192.852 30.9963 187.654 48.8215 207.914 48.8215C228.173 48.8215 246.696 52.7234 258.849 90.032C271.003 127.341 248.788 144.396 249.19 161.214C249.53 171.972 250.827 182.679 253.066 193.206V193.206Z" fill="white"/>
<path d="M149.483 13.0526H104.739V77.5366H149.483V13.0526Z" fill="#92E3A9"/>
<path opacity="0.4" d="M149.483 13.0526H104.739V77.5366H149.483V13.0526Z" fill="white"/>
<path d="M143.094 22.2646H111.135V68.3246H143.094V22.2646Z" fill="white"/>
<path d="M69.1084 51.6575H38.064V96.4015H69.1084V51.6575Z" fill="#92E3A9"/>
<path opacity="0.4" d="M69.1084 51.6575H38.064V96.4015H69.1084V51.6575Z" fill="white"/>
<path d="M64.6735 58.0466H42.4989V90.0057H64.6735V58.0466Z" fill="white"/>
<path d="M219.79 51.6575H188.746V96.4015H219.79V51.6575Z" fill="#92E3A9"/>
<path opacity="0.4" d="M219.79 51.6575H188.746V96.4015H219.79V51.6575Z" fill="white"/>
<path d="M215.356 58.0466H193.181V90.0057H215.356V58.0466Z" fill="white"/>
<path d="M185.213 141.172C183.897 144.462 182.502 141.83 182.719 127.972C182.824 121.484 183.278 108.232 190.457 111.147C197.346 113.95 188.266 133.552 188.266 133.552L185.213 141.172ZM195.083 143.146C195.083 143.146 210.039 127.558 204.426 122.669C198.59 117.576 193.852 129.966 191.648 136.072C186.95 149.094 187.384 152.049 189.72 149.357L195.083 143.146ZM198.234 157.135C198.234 157.135 211.927 147.383 208.348 142.83C204.624 138.092 199.208 146.883 196.635 151.226C191.154 160.504 191.062 162.827 193.234 161.096L198.234 157.135ZM201.939 171.084C201.939 171.084 215.638 161.333 212.059 156.78C208.328 152.042 202.913 160.826 200.347 165.176C194.865 174.447 194.767 176.776 196.945 175.046L201.939 171.084ZM178.027 143.041C178.027 143.041 158.86 133.065 155.747 139.823C152.503 146.857 165.723 147.923 172.197 148.318C186.015 149.173 188.733 147.923 185.495 146.436L178.027 143.041ZM180.725 154.016C180.725 154.016 159.958 148.054 158.248 155.299C156.471 162.833 169.638 161.221 176.066 160.352C189.779 158.444 192.187 156.681 188.72 155.865L180.725 154.016ZM185.476 165.992C185.476 165.992 167.782 161.425 166.499 167.59C165.183 174.006 176.27 172.361 181.686 171.453C193.234 169.518 195.234 167.972 192.286 167.367L185.476 165.992ZM188.246 175.862C188.246 175.862 171.138 169.439 169.21 175.434C167.203 181.678 178.422 181.218 183.897 180.889C195.589 180.191 197.715 178.869 194.865 177.947L188.246 175.862ZM176.777 125.768C176.777 125.768 168.967 101.488 160.097 105.903C150.885 110.509 161.531 121.438 166.867 126.683C178.244 137.869 181.765 138.645 180.271 134.743L176.777 125.768Z" fill="white"/>
<path d="M163.808 114.582C163.808 114.582 183.429 138.52 188.121 150.502C193.516 164.274 197.188 179.783 197.919 192.614" stroke="#CCCCCC" stroke-width="1.25197" stroke-linecap="round" stroke-linejoin="round"/>
<path d="M184.212 142.679L186.943 119.853" stroke="#CCCCCC" stroke-width="1.25197" stroke-linecap="round" stroke-linejoin="round"/>
<path d="M188.121 150.496L197.991 131.308" stroke="#CCCCCC" stroke-width="1.25197" stroke-linecap="round" stroke-linejoin="round"/>
<path d="M186.68 147.653L166.005 143.442" stroke="#CCCCCC" stroke-width="1.25197" stroke-linecap="round" stroke-linejoin="round"/>
<path d="M192.003 161.386L204.156 147.541" stroke="#CCCCCC" stroke-width="1.25197" stroke-linecap="round" stroke-linejoin="round"/>
<path d="M190.305 156.826L174.704 156.687" stroke="#CCCCCC" stroke-width="1.25197" stroke-linecap="round" stroke-linejoin="round"/>
<path d="M193.313 168.156L181.344 168.624" stroke="#CCCCCC" stroke-width="1.25197" stroke-linecap="round" stroke-linejoin="round"/>
<path d="M195.767 175.381L202.176 166.84" stroke="#CCCCCC" stroke-width="1.25197" stroke-linecap="round" stroke-linejoin="round"/>
<path d="M196.241 178.559L182.238 177.862" stroke="#CCCCCC" stroke-width="1.25197" stroke-linecap="round" stroke-linejoin="round"/>
<path d="M235.234 160.076C232.819 160.984 233.556 158.951 241.024 152.266C244.525 149.127 251.802 142.856 253.776 148.107C255.678 153.154 240.787 157.977 240.787 157.977L235.234 160.076ZM239.03 166.281C239.03 166.281 254.678 166.577 254.52 161.188C254.355 155.582 245.439 159.148 241.11 160.978C231.898 164.88 230.509 166.564 233.089 166.485L239.03 166.281ZM233.141 174.835C233.141 174.835 245.058 177.329 245.722 173.183C246.38 168.874 239.07 170.315 235.497 171.084C227.871 172.723 226.588 173.815 228.568 174.131L233.141 174.835ZM227.568 183.672C227.568 183.672 239.491 186.166 240.149 182.02C240.84 177.711 233.503 179.145 229.924 179.915C222.304 181.553 220.988 182.646 222.962 182.961L227.568 183.672ZM230.733 157.168C230.733 157.168 226.614 142.067 221.521 143.731C216.185 145.462 222.12 153.022 225.094 156.661C231.43 164.432 233.431 165.261 232.628 162.807L230.733 157.168ZM226.219 163.998C226.219 163.998 219.185 150.022 214.494 152.667C209.605 155.431 216.922 161.655 220.554 164.629C228.312 170.986 230.424 171.4 229.167 169.157L226.219 163.998ZM222.186 172.407C222.186 172.407 215.915 160.754 212.006 163.103C207.94 165.551 214.27 170.644 217.415 173.078C224.12 178.27 225.923 178.573 224.798 176.704L222.186 172.407ZM218.29 178.744C218.29 178.744 213.289 166.485 209.157 168.406C204.854 170.38 210.605 176.144 213.474 178.902C219.593 184.777 221.37 185.271 220.435 183.29L218.29 178.744ZM239.287 148.035C239.287 148.035 248.361 131.947 241.656 129.4C234.681 126.768 234.095 137.803 233.931 143.218C233.576 154.773 234.892 157.036 236.234 154.312L239.287 148.035Z" fill="white"/>
<path d="M238.853 135.638C238.853 135.638 235.767 157.839 231.7 166.228C227.028 175.862 219.975 186.12 213.5 192.818" stroke="#CCCCCC" stroke-width="1.25197" stroke-linecap="round" stroke-linejoin="round"/>
<path d="M233.937 160.287L247.42 150.522" stroke="#CCCCCC" stroke-width="1.25197" stroke-linecap="round" stroke-linejoin="round"/>
<path d="M231.7 166.209L246.755 162.024" stroke="#CCCCCC" stroke-width="1.25197" stroke-linecap="round" stroke-linejoin="round"/>
<path d="M232.503 164.044L224.581 150.976" stroke="#CCCCCC" stroke-width="1.25197" stroke-linecap="round" stroke-linejoin="round"/>
<path d="M227.818 173.624L241.156 173.282" stroke="#CCCCCC" stroke-width="1.25197" stroke-linecap="round" stroke-linejoin="round"/>
<path d="M229.41 170.479L221.81 162.109" stroke="#CCCCCC" stroke-width="1.25197" stroke-linecap="round" stroke-linejoin="round"/>
<path d="M224.857 177.645L218.724 171.512" stroke="#CCCCCC" stroke-width="1.25197" stroke-linecap="round" stroke-linejoin="round"/>
<path d="M222.218 182.507L229.917 181.718" stroke="#CCCCCC" stroke-width="1.25197" stroke-linecap="round" stroke-linejoin="round"/>
<path d="M220.758 184.317L214.25 176.533" stroke="#CCCCCC" stroke-width="1.25197" stroke-linecap="round" stroke-linejoin="round"/>
<path d="M33.5962 141.172C32.2802 144.462 30.8852 141.83 31.1024 127.972C31.2076 121.484 31.6617 108.232 38.8404 111.147C45.7363 113.95 36.6493 133.552 36.6493 133.552L33.5962 141.172ZM43.4662 143.146C43.4662 143.146 58.4225 127.558 52.8164 122.669C46.9733 117.576 42.2357 129.966 40.0314 136.072C35.3333 149.094 35.7676 152.049 38.1035 149.357L43.4662 143.146ZM46.618 157.122C46.618 157.122 60.3176 147.37 56.7315 142.817C53.0072 138.079 47.5918 146.87 45.0191 151.213C39.5379 160.491 39.4458 162.813 41.6238 161.083L46.618 157.122ZM50.3291 171.071C50.3291 171.071 64.0089 161.3 60.436 156.766C56.7051 152.029 51.2898 160.813 48.7236 165.163C43.2425 174.434 43.1438 176.763 45.3217 175.033L50.3291 171.071ZM26.3977 143.027C26.3977 143.027 7.2367 133.052 4.11778 139.81C0.87384 146.844 14.0931 147.91 20.5678 148.305C34.3858 149.16 37.0967 147.91 33.8594 146.423L26.3977 143.027ZM29.0955 154.003C29.0955 154.003 8.33556 148.041 6.61818 155.286C4.84158 162.82 18.0082 161.208 24.4368 160.339C38.1495 158.431 40.5644 156.668 37.0967 155.852L29.0955 154.003ZM33.8462 165.978C33.8462 165.978 16.1526 161.412 14.8695 167.577C13.5535 173.993 24.6408 172.348 30.0561 171.44C41.604 169.505 43.6044 167.959 40.6565 167.354L33.8462 165.978ZM36.6164 175.848C36.6164 175.848 19.5084 169.426 17.5805 175.421C15.5736 181.665 26.7925 181.205 32.267 180.876C43.9597 180.178 46.085 178.855 43.2425 177.934L36.6164 175.848ZM25.1606 125.768C25.1606 125.768 17.3502 101.514 8.454 105.929C-0.758 110.535 9.88844 121.465 15.2248 126.709C26.6082 137.895 30.1285 138.671 28.6283 134.769L25.1606 125.768Z" fill="white"/>
<path d="M12.1914 114.582C12.1914 114.582 31.813 138.52 36.5045 150.502C41.9001 164.274 45.5718 179.783 46.3022 192.614" stroke="#CCCCCC" stroke-width="1.25197" stroke-linecap="round" stroke-linejoin="round"/>
<path d="M32.6026 142.679L35.3267 119.853" stroke="#CCCCCC" stroke-width="1.25197" stroke-linecap="round" stroke-linejoin="round"/>
<path d="M36.5045 150.496L46.3745 131.308" stroke="#CCCCCC" stroke-width="1.25197" stroke-linecap="round" stroke-linejoin="round"/>
<path d="M35.0635 147.653L14.3957 143.442" stroke="#CCCCCC" stroke-width="1.25197" stroke-linecap="round" stroke-linejoin="round"/>
<path d="M40.3867 161.386L52.54 147.541" stroke="#CCCCCC" stroke-width="1.25197" stroke-linecap="round" stroke-linejoin="round"/>
<path d="M38.6891 156.826L23.0879 156.687" stroke="#CCCCCC" stroke-width="1.25197" stroke-linecap="round" stroke-linejoin="round"/>
<path d="M41.6962 168.156L29.7271 168.624" stroke="#CCCCCC" stroke-width="1.25197" stroke-linecap="round" stroke-linejoin="round"/>
<path d="M44.1571 175.381L50.566 166.84" stroke="#CCCCCC" stroke-width="1.25197" stroke-linecap="round" stroke-linejoin="round"/>
<path d="M44.6242 178.559L30.622 177.862" stroke="#CCCCCC" stroke-width="1.25197" stroke-linecap="round" stroke-linejoin="round"/>
<path d="M83.6174 160.076C81.2025 160.984 81.9395 158.951 89.4078 152.266C92.9149 149.127 100.186 142.856 102.16 148.107C104.061 153.154 89.1709 157.977 89.1709 157.977L83.6174 160.076ZM87.414 166.281C87.414 166.281 103.061 166.577 102.903 161.188C102.739 155.582 93.8229 159.148 89.4933 160.978C80.2813 164.88 78.8929 166.564 81.4723 166.485L87.414 166.281ZM81.5249 174.835C81.5249 174.835 93.4413 177.329 94.1059 173.183C94.7639 168.874 87.4535 170.315 83.8806 171.084C76.228 172.723 74.9712 173.802 76.9518 174.131L81.5249 174.835ZM75.9253 183.672C75.9253 183.672 87.8483 186.166 88.5063 182.02C89.1972 177.711 81.8605 179.145 78.2876 179.915C70.6548 181.56 69.3717 182.652 71.3588 182.968L75.9253 183.672ZM79.0903 157.168C79.0903 157.168 74.9778 142.067 69.8783 143.731C64.5419 145.462 70.4705 153.022 73.4447 156.661C79.7812 164.432 81.7815 165.261 80.9788 162.807L79.0903 157.168ZM74.5764 163.998C74.5764 163.998 67.5424 150.022 62.8509 152.667C57.9619 155.431 65.2789 161.655 68.9176 164.629C76.6755 170.986 78.7876 171.4 77.5243 169.157L74.5764 163.998ZM70.5429 172.407C70.5429 172.407 64.2722 160.754 60.3636 163.103C56.2972 165.551 62.6272 170.644 65.7724 173.078C72.4774 178.27 74.2869 178.573 73.1552 176.704L70.5429 172.407ZM66.6475 178.744C66.6475 178.744 61.6533 166.485 57.5145 168.406C53.2112 170.38 58.9687 176.144 61.831 178.902C67.9504 184.777 69.727 185.271 68.7926 183.29L66.6475 178.744ZM87.6443 148.035C87.6443 148.035 96.7247 131.947 90.0197 129.4C83.0383 126.768 82.4593 137.803 82.2882 143.218C81.9395 154.773 83.2489 157.036 84.5912 154.312L87.6443 148.035Z" fill="white"/>
<path d="M87.2363 135.638C87.2363 135.638 84.1503 157.839 80.0839 166.228C75.4121 175.862 68.3583 186.12 61.8836 192.818" stroke="#CCCCCC" stroke-width="1.25197" stroke-linecap="round" stroke-linejoin="round"/>
<path d="M82.3211 160.287L95.8035 150.522" stroke="#CCCCCC" stroke-width="1.25197" stroke-linecap="round" stroke-linejoin="round"/>
<path d="M80.0839 166.209L95.1389 162.024" stroke="#CCCCCC" stroke-width="1.25197" stroke-linecap="round" stroke-linejoin="round"/>
<path d="M80.8866 164.044L72.9643 150.976" stroke="#CCCCCC" stroke-width="1.25197" stroke-linecap="round" stroke-linejoin="round"/>
<path d="M76.2017 173.624L89.5393 173.282" stroke="#CCCCCC" stroke-width="1.25197" stroke-linecap="round" stroke-linejoin="round"/>
<path d="M77.7941 170.479L70.1942 162.109" stroke="#CCCCCC" stroke-width="1.25197" stroke-linecap="round" stroke-linejoin="round"/>
<path d="M73.2407 177.645L67.1081 171.512" stroke="#CCCCCC" stroke-width="1.25197" stroke-linecap="round" stroke-linejoin="round"/>
<path d="M70.6021 182.507L78.3007 181.718" stroke="#CCCCCC" stroke-width="1.25197" stroke-linecap="round" stroke-linejoin="round"/>
<path d="M69.1479 184.317L62.6337 176.533" stroke="#CCCCCC" stroke-width="1.25197" stroke-linecap="round" stroke-linejoin="round"/>
<path d="M121.281 57.1386C121.281 57.1386 112.859 54.454 106.417 61.0866C99.9752 67.7192 103.37 80.9648 103.37 85.6168C103.37 90.2689 97.4485 119.833 97.4485 119.833C97.4485 119.833 94.5796 130.578 102.462 137.388C110.345 144.199 124.913 143.606 131.132 130.499C137.35 117.392 130.756 98.7045 130.756 89.045C130.756 79.3856 132.191 72.9306 130.039 65.9492C129.386 63.8896 128.251 62.0157 126.727 60.4833C125.204 58.9508 123.337 57.8042 121.281 57.1386Z" fill="#263238" stroke="#263238" stroke-linecap="round" stroke-linejoin="round"/>
<path d="M118.781 62.1591C118.781 62.1591 110.661 72.2529 105.18 75.102" stroke="white" stroke-linecap="round" stroke-linejoin="round"/>
<path d="M111.76 61.284C111.76 61.284 107.595 71.3711 103.864 74.2269" stroke="white" stroke-linecap="round" stroke-linejoin="round"/>
<path d="M135.126 95.9803C135.904 96.5257 136.557 97.23 137.042 98.0467C137.528 98.8634 137.834 99.7739 137.942 100.718C138.422 104.074 134.843 111.832 134.125 115.668C133.448 120.325 133.011 125.014 132.816 129.716C132.816 130.914 136.896 148.653 137.613 152.97C138.33 157.286 137.251 167.446 136.652 168.189C136.053 168.933 134.375 165.432 134.257 163.156C134.139 160.879 129.704 143.376 128.026 138.106C126.348 132.835 126.822 125.88 126.822 125.88C126.822 125.88 129.105 109.937 129.105 103.824C129.105 97.7109 129.289 93.1378 129.289 93.1378L135.126 95.9803Z" fill="#92E3A9" stroke="#263238" stroke-linecap="round" stroke-linejoin="round"/>
<path d="M136.639 168.163C137.238 167.446 138.317 157.253 137.6 152.943C136.882 148.633 132.816 130.887 132.816 129.716C133.014 125.023 133.453 120.342 134.132 115.694C134.395 114.464 134.734 113.251 135.145 112.062C133.735 112.741 132.19 113.092 130.625 113.088C129.789 113.088 128.973 113.858 128.19 115.168C127.532 120.734 126.815 125.88 126.815 125.88C126.815 125.88 126.341 132.828 128.019 138.105C129.697 143.383 134.132 160.879 134.25 163.156C134.369 165.432 136.04 168.88 136.639 168.163Z" fill="white" stroke="#263238" stroke-linecap="round" stroke-linejoin="round"/>
<path d="M112.576 193.331C112.839 190.384 113.392 184.383 113.747 182.066C114.227 178.954 115.182 172.598 115.182 172.598L117.61 193.331H134.244C134.843 188.811 136.349 176.691 136.639 168.163C137.001 157.497 128.967 135.441 128.743 133.763C128.519 132.085 128.98 127.183 128.98 125.735C128.98 124.287 133.165 115.102 133.52 110.423C133.875 105.745 134.961 104.311 134.961 104.311L135.56 96.4146C135.198 96.2962 129.822 92.0652 124.426 90.4926C121.145 89.5613 117.681 89.4798 114.359 90.2557C114.359 90.2557 106.568 93.73 102.614 95.4079C98.6592 97.0858 95.4087 100.323 95.31 104.515C95.2113 108.706 102.976 126.571 103.699 127.893C104.423 129.216 102.14 133.881 101.179 136.283C100.219 138.685 96.2641 147.311 93.6321 156.898C91.3752 165.083 92.882 187.08 93.3755 193.331H112.576Z" fill="#92E3A9" stroke="#263238" stroke-linecap="round" stroke-linejoin="round"/>
<path d="M116.313 124.584C116.313 124.584 122.459 125.321 128.611 119.418" stroke="#263238" stroke-linecap="round" stroke-linejoin="round"/>
<path d="M120.577 107.397C122.374 106.916 124.657 99.5006 124.894 95.6513C125.025 93.4997 125.157 91.8942 125.098 90.7098C124.874 90.6374 124.644 90.5584 124.44 90.4926C121.158 89.5613 117.694 89.4798 114.372 90.2557L111.201 91.6638C110.936 93.3682 111.12 95.1121 111.734 96.7239C113.03 100.323 118.781 107.877 120.577 107.397Z" fill="white" stroke="#263238" stroke-linecap="round" stroke-linejoin="round"/>
<path d="M112.55 86.5775C112.55 86.5775 113.155 93.6379 113.517 95.3684C113.879 97.0989 117.517 103.922 119.577 103.547C121.637 103.172 122.946 94.2564 122.946 93.3878C122.946 92.5193 123.189 85.4918 123.189 85.4918C123.189 85.4918 118.853 89.0516 112.55 86.5775Z" fill="white" stroke="#263238" stroke-linecap="round" stroke-linejoin="round"/>
<path d="M100.679 96.6054C100.679 96.6054 95.7706 96.8489 93.0136 102.363C90.2566 107.877 93.4873 111.575 94.5665 113.746C95.6456 115.918 98.6461 124.774 99.6002 127.413C100.554 130.052 102.482 133.164 105.838 137.48C109.194 141.797 116.261 151.022 116.261 151.022L118.182 154.378C118.182 154.378 121.419 158.096 121.775 158.214C122.13 158.332 124.295 161.089 125.131 159.412C125.966 157.734 125.131 151.746 125.131 151.746C125.131 151.746 126.447 154.378 126.933 153.779C127.42 153.18 126.808 151.864 126.335 150.423C125.861 148.982 121.426 146.232 120.459 146.107C119.491 145.982 118.301 144.791 116.866 141.915C115.432 139.04 114.346 134.019 112.069 131.006C109.793 127.992 106.805 123.577 106.805 123.577C106.805 123.577 103.449 111.588 103.449 111.108C103.695 108.869 103.366 106.605 102.495 104.528" fill="#92E3A9"/>
<path d="M100.679 96.6054C100.679 96.6054 95.7706 96.8489 93.0136 102.363C90.2566 107.877 93.4873 111.575 94.5665 113.746C95.6456 115.918 98.6461 124.774 99.6002 127.413C100.554 130.052 102.482 133.164 105.838 137.48C109.194 141.797 116.261 151.022 116.261 151.022L118.182 154.378C118.182 154.378 121.419 158.096 121.775 158.214C122.13 158.332 124.295 161.089 125.131 159.412C125.966 157.734 125.131 151.746 125.131 151.746C125.131 151.746 126.447 154.378 126.933 153.779C127.42 153.18 126.808 151.864 126.335 150.423C125.861 148.982 121.426 146.232 120.459 146.107C119.491 145.982 118.301 144.791 116.866 141.915C115.432 139.04 114.346 134.019 112.069 131.006C109.793 127.992 106.805 123.577 106.805 123.577C106.805 123.577 103.449 111.588 103.449 111.108C103.695 108.869 103.366 106.605 102.495 104.528" stroke="#263238" stroke-linecap="round" stroke-linejoin="round"/>
<path d="M120.459 146.107C119.498 145.988 118.301 144.791 116.866 141.915C115.432 139.04 114.346 134.019 112.069 131.006C109.793 127.992 106.805 123.577 106.805 123.577C106.805 123.577 104.535 115.457 103.732 112.318C99.3238 111.7 96.4154 112.588 94.5665 113.72C95.6456 115.878 98.6461 124.748 99.6002 127.387C100.554 130.025 102.482 133.138 105.838 137.454C109.194 141.771 116.261 150.996 116.261 150.996L118.182 154.352C118.182 154.352 121.419 158.069 121.775 158.188C122.13 158.306 124.295 161.063 125.131 159.385C125.966 157.707 125.131 151.72 125.131 151.72C125.131 151.72 126.447 154.352 126.933 153.753C127.42 153.154 126.808 151.838 126.335 150.397C125.861 148.956 121.426 146.232 120.459 146.107Z" fill="white" stroke="#263238" stroke-linecap="round" stroke-linejoin="round"/>
<path d="M112.576 193.331C112.839 190.384 113.392 184.383 113.747 182.066C114.227 178.954 115.182 172.598 115.182 172.598L117.61 193.331H134.244C134.843 188.811 136.349 176.691 136.639 168.163C136.79 163.721 135.481 157.299 133.889 151.2C119.827 154.279 103.884 152.049 95.6061 150.443C94.9086 152.503 94.2243 154.667 93.6321 156.898C91.3751 165.083 92.882 187.08 93.3755 193.331H112.576Z" fill="#263238" stroke="#263238" stroke-linecap="round" stroke-linejoin="round"/>
<path d="M108.384 76.0627C108.384 76.0627 107.312 75.5823 107.312 77.734C107.312 79.8857 109.7 81.3135 109.7 81.3135L108.384 76.0627Z" fill="white" stroke="#263238" stroke-linecap="round" stroke-linejoin="round"/>
<path d="M120.696 64.245C120.696 64.245 116.866 69.6406 113.504 71.7988C111.769 72.9394 109.97 73.9786 108.115 74.9112C108.115 74.9112 109.793 81.8662 110.51 84.1232C111.227 86.3801 113.379 90.3676 117.695 90.6045C122.012 90.8414 123.933 86.2814 124.775 84.1232C125.255 83.008 125.512 81.81 125.532 80.5963C126.138 80.2135 126.654 79.7053 127.047 79.106C127.44 78.5067 127.699 77.8302 127.809 77.1221C128.045 74.8454 127.447 74.9638 127.447 74.9638C127.447 74.9638 126.789 75.7074 125.361 74.5888C124.203 73.7268 120.314 67.4824 120.696 64.245Z" fill="white" stroke="#263238" stroke-linecap="round" stroke-linejoin="round"/>
<path d="M111.556 77.8722C111.556 77.8722 113.247 76.6351 115.721 77.8722" stroke="#263238" stroke-linecap="round" stroke-linejoin="round"/>
<path d="M119.209 78.0959C119.209 78.0959 121.235 76.293 123.374 77.7603" stroke="#263238" stroke-linecap="round" stroke-linejoin="round"/>
<path d="M111.22 75.1678C111.22 75.1678 112.122 73.4833 115.168 74.2729" stroke="#263238" stroke-linecap="round" stroke-linejoin="round"/>
<path d="M119.209 74.3848C119.898 73.882 120.748 73.6497 121.597 73.7322C122.446 73.8147 123.235 74.2062 123.815 74.8322" stroke="#263238" stroke-linecap="round" stroke-linejoin="round"/>
<path d="M118.873 81.807C118.873 81.807 117.07 83.0441 116.287 81.807" stroke="#263238" stroke-linecap="round" stroke-linejoin="round"/>
<path d="M115.609 84.3995C115.609 84.3995 117.86 85.2944 118.985 84.2877" stroke="#263238" stroke-linecap="round" stroke-linejoin="round"/>
<path d="M77.5769 149.081C77.5769 149.081 82.8409 160.767 84.0977 163.123C85.3545 165.478 86.8152 172.183 86.9929 176.164C87.1705 180.145 86.9929 180.968 86.0914 180.876C85.19 180.783 84.8215 175.802 84.8215 174.986V173.723C84.8215 173.723 84.3675 178.428 83.6437 179.336C82.9199 180.244 81.9197 181.237 81.8342 180.698C81.7486 180.158 82.0118 179.244 82.3737 177.888C82.5923 176.846 82.6544 175.777 82.558 174.717C82.558 174.717 82.0118 177.25 80.7485 178.158C79.4851 179.066 78.1165 179.428 78.5705 178.704C79.0245 177.98 80.2023 177.164 80.4721 176.256C80.6586 175.425 80.7513 174.575 80.7485 173.723C80.7485 173.723 79.0245 176.526 78.3007 176.98C77.5769 177.434 77.5769 176.441 78.0309 175.987C78.485 175.533 79.4785 172.453 79.4785 172.453C79.4785 172.453 79.2022 172.269 77.9388 169.466C76.6755 166.663 75.9648 161.761 75.5832 159.859C75.2015 157.957 74.4975 155.424 74.4975 155.424L67.5227 143.738C67.5227 143.738 66.9765 140.928 69.6019 140.448C72.2274 139.968 77.5769 149.081 77.5769 149.081Z" fill="white"/>
<path opacity="0.15" d="M77.5769 149.081C77.5769 149.081 82.8409 160.767 84.0977 163.123C85.3545 165.478 86.8152 172.183 86.9929 176.164C87.1705 180.145 86.9929 180.968 86.0914 180.876C85.19 180.783 84.8215 175.802 84.8215 174.986V173.723C84.8215 173.723 84.3675 178.428 83.6437 179.336C82.9199 180.244 81.9197 181.237 81.8342 180.698C81.7486 180.158 82.0118 179.244 82.3737 177.888C82.5923 176.846 82.6544 175.777 82.558 174.717C82.558 174.717 82.0118 177.25 80.7485 178.158C79.4851 179.066 78.1165 179.428 78.5705 178.704C79.0245 177.98 80.2023 177.164 80.4721 176.256C80.6586 175.425 80.7513 174.575 80.7485 173.723C80.7485 173.723 79.0245 176.526 78.3007 176.98C77.5769 177.434 77.5769 176.441 78.0309 175.987C78.485 175.533 79.4785 172.453 79.4785 172.453C79.4785 172.453 79.2022 172.269 77.9388 169.466C76.6755 166.663 75.9648 161.761 75.5832 159.859C75.2015 157.957 74.4975 155.424 74.4975 155.424L67.5227 143.738C67.5227 143.738 66.9765 140.928 69.6019 140.448C72.2274 139.968 77.5769 149.081 77.5769 149.081Z" fill="black"/>
<path d="M77.5769 149.081C77.5769 149.081 82.8409 160.767 84.0977 163.123C85.3545 165.478 86.8152 172.183 86.9929 176.164C87.1705 180.145 86.9929 180.968 86.0914 180.876C85.19 180.783 84.8215 175.802 84.8215 174.986V173.723C84.8215 173.723 84.3675 178.428 83.6437 179.336C82.9199 180.244 81.9197 181.237 81.8342 180.698C81.7486 180.158 82.0118 179.244 82.3737 177.888C82.5923 176.846 82.6544 175.777 82.558 174.717C82.558 174.717 82.0118 177.25 80.7485 178.158C79.4851 179.066 78.1165 179.428 78.5705 178.704C79.0245 177.98 80.2023 177.164 80.4721 176.256C80.6586 175.425 80.7513 174.575 80.7485 173.723C80.7485 173.723 79.0245 176.526 78.3007 176.98C77.5769 177.434 77.5769 176.441 78.0309 175.987C78.485 175.533 79.4785 172.453 79.4785 172.453C79.4785 172.453 79.2022 172.269 77.9388 169.466C76.6755 166.663 75.9648 161.761 75.5832 159.859C75.2015 157.957 74.4975 155.424 74.4975 155.424L67.5227 143.738C67.5227 143.738 66.9765 140.928 69.6019 140.448C72.2274 139.968 77.5769 149.081 77.5769 149.081Z" stroke="#263238" stroke-linecap="round" stroke-linejoin="round"/>
<path d="M84.124 166.564C84.124 166.564 85.032 171.005 84.9399 172.993C84.8478 174.98 85.3018 175.987 84.6636 175.987C84.0253 175.987 83.8542 175.533 83.2159 173.539C82.7958 172.06 82.5225 170.544 82.4 169.012C82.4 169.012 80.1365 169.012 79.3206 165.656" fill="white"/>
<path opacity="0.15" d="M84.124 166.564C84.124 166.564 85.032 171.005 84.9399 172.993C84.8478 174.98 85.3018 175.987 84.6636 175.987C84.0253 175.987 83.8542 175.533 83.2159 173.539C82.7958 172.06 82.5225 170.544 82.4 169.012C82.4 169.012 80.1365 169.012 79.3206 165.656" fill="black"/>
<path d="M84.124 166.564C84.124 166.564 85.032 171.005 84.9399 172.993C84.8478 174.98 85.3018 175.987 84.6636 175.987C84.0253 175.987 83.8542 175.533 83.2159 173.539C82.7958 172.06 82.5225 170.544 82.4 169.012C82.4 169.012 80.1365 169.012 79.3206 165.656" stroke="#263238" stroke-linecap="round" stroke-linejoin="round"/>
<path d="M43.6899 193.331H77.0373C77.2018 187.094 78.2941 146.35 78.6231 144.528C78.985 142.554 80.7748 123.932 80.9524 116.595C81.1301 109.259 77.9059 98.6847 77.9059 97.9675C77.9059 97.2503 77.3729 92.7759 72.359 89.0121C67.345 85.2484 63.4036 85.2549 62.331 85.7879C62.331 85.7879 58.383 88.4791 52.1189 95.1052C45.8547 101.731 43.7031 107.101 43.7031 117.306C43.7078 123.482 44.2472 129.647 45.3152 135.73C45.3152 135.73 43.3412 167.604 43.3412 168.321C43.3412 169.038 43.6307 189.074 43.6899 193.331Z" fill="white" stroke="#263238" stroke-linecap="round" stroke-linejoin="round"/>
<path d="M58.8239 121.28C59.5318 121.279 60.239 121.239 60.9427 121.162C68.6149 120.326 75.2871 112.483 79.6891 105.706C79.4851 104.725 79.2811 103.784 79.0771 102.922C74.9252 109.693 68.2136 118.385 60.7321 119.201C50.316 120.333 45.5981 112.128 44.2821 109.476C44.0979 110.489 43.9597 111.555 43.8676 112.68C46.1969 116.207 50.9016 121.28 58.8239 121.28Z" fill="#263238"/>
<path d="M56.3235 105.449L58.2317 105.956C60.1986 98.794 64.0633 92.2966 69.4177 87.15C68.7802 86.814 68.1207 86.5216 67.4437 86.2748C62.1164 91.578 58.2809 98.1914 56.3235 105.449Z" fill="#263238"/>
<path d="M58.1988 114.891C58.6462 114.661 67.9701 109.805 77.8138 97.1253C77.661 96.3304 77.4182 95.5556 77.09 94.8157C67.1805 107.976 57.4092 113.069 57.3039 113.121L58.1988 114.891Z" fill="#263238"/>
<path d="M48.467 107.752L50.441 107.456C50.441 107.403 49.8685 102.738 54.4614 92.7232C53.7244 93.4536 52.9545 94.2432 52.1386 95.1052C51.6122 95.6579 51.1253 96.2041 50.6581 96.7502C47.9669 104.054 48.4407 107.555 48.467 107.752Z" fill="#263238"/>
<path d="M64.7459 137C53.402 138.474 47.6379 136.092 45.0585 134.263C45.2099 135.223 45.3152 135.756 45.3152 135.756C45.3152 135.756 45.3152 136.105 45.2559 136.737C47.7827 138.125 51.8359 139.441 58.0409 139.441C60.3693 139.431 62.6947 139.271 65.0025 138.961C70.2316 138.288 75.2579 136.512 79.7483 133.75C79.8273 132.92 79.8996 132.072 79.972 131.21C75.4202 134.306 70.2047 136.289 64.7459 137V137Z" fill="#263238"/>
<path d="M64.1603 149.147C69.3749 147.821 74.3395 145.656 78.86 142.738C78.939 142.027 79.0311 141.159 79.1364 140.165C74.4406 143.407 69.2108 145.797 63.6865 147.225C56.0472 149.101 48.6315 147.008 44.7164 145.501C44.6769 146.159 44.6308 146.87 44.5914 147.581C48.6493 149.106 52.9427 149.91 57.2776 149.956C59.5959 149.961 61.9064 149.689 64.1603 149.147V149.147Z" fill="#263238"/>
<path d="M43.7096 162.044C43.6636 162.754 43.6241 163.425 43.5912 164.018C48.6783 165.239 53.8886 165.872 59.12 165.906C65.5525 165.976 71.9394 164.819 77.9388 162.498C77.9388 161.774 77.9848 161.05 78.0046 160.346C64.7919 165.906 50.6581 163.735 43.7096 162.044Z" fill="#263238"/>
<path d="M65.6013 155.529C58.52 157.246 51.1067 157.018 44.1439 154.871C44.1044 155.562 44.0584 156.247 44.0189 156.924C47.8565 158.098 51.85 158.681 55.8629 158.655C59.2981 158.651 62.7217 158.258 66.0685 157.484C70.309 156.501 74.4049 154.975 78.2546 152.943C78.2546 152.127 78.3139 151.351 78.3402 150.627C74.3458 152.853 70.0572 154.503 65.6013 155.529V155.529Z" fill="#263238"/>
<path d="M60.0741 127.742C51.9807 128.15 46.7496 125.163 43.8478 122.702C43.8939 123.61 43.9531 124.491 44.0189 125.334C48.2802 128.316 53.3802 129.865 58.5804 129.755C59.1002 129.755 59.6332 129.755 60.1728 129.716C68.1149 129.315 75.1423 125.84 80.8208 119.682C80.8866 118.53 80.9327 117.477 80.9524 116.602V116.47C76.3135 122.228 69.5822 127.255 60.0741 127.742Z" fill="#263238"/>
<path d="M73.517 89.9728C73.1551 89.6504 72.7801 89.3148 72.3589 89.0121C67.345 85.2549 63.4036 85.255 62.331 85.7879C60.2412 87.3174 58.2622 88.9929 56.409 90.8019C56.2208 91.6092 56.2202 92.449 56.4072 93.2566C56.5943 94.0642 56.9641 94.8182 57.4882 95.4605C60.89 99.7573 71.9641 116.234 74.8593 112.654C77.7545 109.075 77.0044 99.2243 73.7802 90.6242C73.7013 90.4005 73.596 90.1834 73.517 89.9728Z" fill="#92E3A9" stroke="#263238" stroke-linecap="round" stroke-linejoin="round"/>
<path d="M63.068 108.89C63.068 108.89 72.7406 129.486 74.708 132.71C75.5751 134.242 76.5958 135.681 77.7545 137.007C77.7545 137.007 86.3085 139.882 93.6452 142.573C100.982 145.265 113.734 148.798 116.412 149.542C119.09 150.285 123.571 150.259 124.308 150.259C125.045 150.259 133.619 152.233 134.178 152.588C134.737 152.943 134 153.661 132.744 154.023C131.487 154.384 127.374 154.733 125.4 155.45C123.426 156.168 121.821 155.99 118.959 155.273C116.703 154.579 114.538 153.618 112.51 152.41C112.51 152.41 89.0129 150.772 83.466 150.114C77.919 149.456 71.622 148.68 69.1413 145.817C64.163 140.197 59.5686 134.249 55.3891 128.012C52.0202 122.919 45.8547 115.766 48.1906 109.285" fill="white"/>
<path d="M63.068 108.89C63.068 108.89 72.7406 129.486 74.708 132.71C75.5751 134.242 76.5958 135.681 77.7545 137.007C77.7545 137.007 86.3085 139.882 93.6452 142.573C100.982 145.265 113.734 148.798 116.412 149.542C119.09 150.285 123.571 150.259 124.308 150.259C125.045 150.259 133.619 152.233 134.178 152.588C134.737 152.943 134 153.661 132.744 154.023C131.487 154.384 127.374 154.733 125.4 155.45C123.426 156.168 121.821 155.99 118.959 155.273C116.703 154.579 114.538 153.618 112.51 152.41C112.51 152.41 89.0129 150.772 83.466 150.114C77.919 149.456 71.622 148.68 69.1413 145.817C64.163 140.197 59.5686 134.249 55.3891 128.012C52.0202 122.919 45.8547 115.766 48.1906 109.285" stroke="#263238" stroke-linecap="round" stroke-linejoin="round"/>
<path d="M124.262 150.259C123.545 150.259 119.07 150.259 116.366 149.542C113.662 148.824 100.91 145.258 93.5729 142.573C86.2362 139.889 77.6822 137.007 77.6822 137.007C76.5235 135.681 75.5027 134.242 74.6356 132.71C73.8263 131.394 71.7075 127.097 69.4901 122.524C62.3508 124.393 58.7581 127.788 56.9881 130.42C60.7272 135.769 64.7673 140.901 69.0887 145.791C71.5957 148.653 77.8598 149.37 83.4133 150.088C88.9669 150.805 112.425 152.417 112.425 152.417C114.452 153.625 116.617 154.586 118.873 155.279C121.735 155.997 123.347 156.174 125.315 155.457C127.282 154.74 131.408 154.384 132.658 154.029C133.908 153.674 134.632 152.95 134.093 152.595C133.553 152.239 125.006 150.259 124.262 150.259Z" fill="white"/>
<path opacity="0.15" d="M124.262 150.259C123.545 150.259 119.07 150.259 116.366 149.542C113.662 148.824 100.91 145.258 93.5729 142.573C86.2362 139.889 77.6822 137.007 77.6822 137.007C76.5235 135.681 75.5027 134.242 74.6356 132.71C73.8263 131.394 71.7075 127.097 69.4901 122.524C62.3508 124.393 58.7581 127.788 56.9881 130.42C60.7272 135.769 64.7673 140.901 69.0887 145.791C71.5957 148.653 77.8598 149.37 83.4133 150.088C88.9669 150.805 112.425 152.417 112.425 152.417C114.452 153.625 116.617 154.586 118.873 155.279C121.735 155.997 123.347 156.174 125.315 155.457C127.282 154.74 131.408 154.384 132.658 154.029C133.908 153.674 134.632 152.95 134.093 152.595C133.553 152.239 125.006 150.259 124.262 150.259Z" fill="black"/>
<path d="M124.262 150.259C123.545 150.259 119.07 150.259 116.366 149.542C113.662 148.824 100.91 145.258 93.5729 142.573C86.2362 139.889 77.6822 137.007 77.6822 137.007C76.5235 135.681 75.5027 134.242 74.6356 132.71C73.8263 131.394 71.7075 127.097 69.4901 122.524C62.3508 124.393 58.7581 127.788 56.9881 130.42C60.7272 135.769 64.7673 140.901 69.0887 145.791C71.5957 148.653 77.8598 149.37 83.4133 150.088C88.9669 150.805 112.425 152.417 112.425 152.417C114.452 153.625 116.617 154.586 118.873 155.279C121.735 155.997 123.347 156.174 125.315 155.457C127.282 154.74 131.408 154.384 132.658 154.029C133.908 153.674 134.632 152.95 134.093 152.595C133.553 152.239 125.006 150.259 124.262 150.259Z" stroke="#263238" stroke-linecap="round" stroke-linejoin="round"/>
<path d="M77.0373 193.331C77.1163 190.226 77.4321 178.494 77.7677 167.301C73.024 169.153 68.0497 170.348 62.9825 170.854C52.4545 172.085 46.3877 169.538 43.3872 167.564C43.3872 168.005 43.3477 168.281 43.3477 168.341C43.3477 168.999 43.6307 189.068 43.6899 193.345L77.0373 193.331Z" fill="#92E3A9" stroke="#263238" stroke-linecap="round" stroke-linejoin="round"/>
<path d="M68.6478 191.838C67.016 185.646 70.964 177.75 65.2657 173.651" stroke="#263238" stroke-linecap="round" stroke-linejoin="round"/>
<path d="M68.6478 177.592L75.9779 170.551" stroke="#263238" stroke-linecap="round" stroke-linejoin="round"/>
<path d="M50.2699 177.638L50.0791 191.838" stroke="#263238" stroke-linecap="round" stroke-linejoin="round"/>
<path d="M50.3357 172.525L50.3028 175.118" stroke="#263238" stroke-linecap="round" stroke-linejoin="round"/>
<path d="M79.7154 56.9149C82.6279 57.6869 85.2015 59.4042 87.0324 61.7972C88.274 63.3862 89.1157 65.2502 89.4867 67.2323C90.3618 72.5621 87.3614 74.2071 88.3286 76.6286C89.2959 79.05 90.2631 80.3068 89.4867 81.4714C88.7103 82.6361 86.2954 82.8269 85.9072 82.9256C85.519 83.0243 84.7425 87.4724 83.1962 89.4135C81.6499 91.3546 76.2214 89.124 76.2214 89.124C76.2214 89.124 73.9974 92.9009 73.3196 94.1577C72.6419 95.4145 73.9776 102.968 73.0235 106.357C72.0694 109.746 69.8322 106.067 65.5684 100.744C61.3046 95.421 59.37 91.0585 59.5674 89.6043C59.7648 88.1501 63.147 84.7614 63.7326 83.5047C64.3182 82.2479 64.6011 81.6623 64.3116 80.5042C64.0221 79.3461 60.6334 74.5822 60.6334 68.4957C60.6334 62.4092 65.4697 56.5859 71.8655 56.0989C74.5094 55.9254 77.1637 56.2013 79.7154 56.9149Z" fill="white"/>
<path opacity="0.15" d="M79.7154 56.9149C82.6279 57.6869 85.2015 59.4042 87.0324 61.7972C88.274 63.3862 89.1157 65.2502 89.4867 67.2323C90.3618 72.5621 87.3614 74.2071 88.3286 76.6286C89.2959 79.05 90.2631 80.3068 89.4867 81.4714C88.7103 82.6361 86.2954 82.8269 85.9072 82.9256C85.519 83.0243 84.7425 87.4724 83.1962 89.4135C81.6499 91.3546 76.2214 89.124 76.2214 89.124C76.2214 89.124 73.9974 92.9009 73.3196 94.1577C72.6419 95.4145 73.9776 102.968 73.0235 106.357C72.0694 109.746 69.8322 106.067 65.5684 100.744C61.3046 95.421 59.37 91.0585 59.5674 89.6043C59.7648 88.1501 63.147 84.7614 63.7326 83.5047C64.3182 82.2479 64.6011 81.6623 64.3116 80.5042C64.0221 79.3461 60.6334 74.5822 60.6334 68.4957C60.6334 62.4092 65.4697 56.5859 71.8655 56.0989C74.5094 55.9254 77.1637 56.2013 79.7154 56.9149Z" fill="black"/>
<path d="M79.7154 56.9149C82.6279 57.6869 85.2015 59.4042 87.0324 61.7972C88.274 63.3862 89.1157 65.2502 89.4867 67.2323C90.3618 72.5621 87.3614 74.2071 88.3286 76.6286C89.2959 79.05 90.2631 80.3068 89.4867 81.4714C88.7103 82.6361 86.2954 82.8269 85.9072 82.9256C85.519 83.0243 84.7425 87.4724 83.1962 89.4135C81.6499 91.3546 76.2214 89.124 76.2214 89.124C76.2214 89.124 73.9974 92.9009 73.3196 94.1577C72.6419 95.4145 73.9776 102.968 73.0235 106.357C72.0694 109.746 69.8322 106.067 65.5684 100.744C61.3046 95.421 59.37 91.0585 59.5674 89.6043C59.7648 88.1501 63.147 84.7614 63.7326 83.5047C64.3182 82.2479 64.6011 81.6623 64.3116 80.5042C64.0221 79.3461 60.6334 74.5822 60.6334 68.4957C60.6334 62.4092 65.4697 56.5859 71.8655 56.0989C74.5094 55.9254 77.1637 56.2013 79.7154 56.9149Z" stroke="#263238" stroke-linecap="round" stroke-linejoin="round"/>
<path d="M80.8735 61.3301C83.2028 60.1851 84.8544 60.218 85.9335 60.5404C84.2194 58.8013 82.0732 57.5499 79.7154 56.9149C77.1637 56.2013 74.5094 55.9254 71.8654 56.0989C65.4697 56.5859 60.6334 62.396 60.6334 68.4957C60.6334 74.5953 64.0221 79.3395 64.3116 80.5042C64.4154 80.8878 64.44 81.2885 64.384 81.682C68.99 82.5966 70.4968 80.2936 70.4968 80.2936C69.9639 80.3605 69.4229 80.318 68.907 80.1687C68.3911 80.0194 67.9111 79.7663 67.4963 79.4251C66.1343 78.2604 66.1343 73.8057 67.7858 71.7725C69.4374 69.7393 71.0758 72.5489 71.0758 74.194C71.0758 75.839 71.8523 77.1944 72.6287 77.0036C73.4052 76.8128 73.2078 74.9704 73.4973 73.8057C73.7868 72.6411 77.1755 70.9039 77.9519 69.9367C78.7284 68.9694 77.5637 68.0943 76.3069 66.6467C75.0502 65.1991 76.1227 63.6528 80.8735 61.3301Z" fill="#263238" stroke="#263238" stroke-linecap="round" stroke-linejoin="round"/>
<path d="M70.306 80.5963C70.306 80.5963 70.306 83.3138 71.9576 85.051" stroke="#263238" stroke-linecap="round" stroke-linejoin="round"/>
<path d="M85.3874 75.6942C84.5678 75.3471 83.6735 75.2136 82.7883 75.306" stroke="#263238" stroke-linecap="round" stroke-linejoin="round"/>
<path d="M86.8152 73.3583C86.8152 73.3583 85.3874 70.8908 82.6567 72.8385" stroke="#263238" stroke-linecap="round" stroke-linejoin="round"/>
<path d="M83.466 84.2679C82.8725 84.3189 82.2792 84.1671 81.7832 83.8372C81.2872 83.5073 80.9178 83.0189 80.7353 82.4519" stroke="#263238" stroke-linecap="round" stroke-linejoin="round"/>
<path d="M64.6801 112.365L63.4431 109.733C55.4878 109.871 50.8292 112.838 48.1972 115.655C48.4812 116.591 48.8376 117.504 49.2632 118.385C51.3359 115.694 55.7774 112.174 64.6801 112.365Z" fill="#263238"/>
<path d="M67.4371 118.148L66.2001 115.556C58.8107 115.951 53.8428 118.675 50.7963 121.175C51.2569 121.938 51.7504 122.689 52.2439 123.419C55.0536 121.05 59.9425 118.287 67.4371 118.148Z" fill="#263238"/>
<path d="M153.089 135.73C153.918 138.211 154.471 147.035 154.471 151.726C154.471 155.635 151.97 184.06 151.141 193.331H188.529C188.976 184.284 190.312 157.095 190.312 153.654C190.312 149.515 188.93 132.559 190.727 126.63C192.523 120.701 194.582 105.127 191.385 100.31C188.187 95.4934 176.251 92.7298 172.638 91.4862C169.026 90.2426 163.676 89.5583 161.057 90.8282C161.057 90.8282 153.892 94.8288 149.477 98.9611C145.061 103.093 143.14 109.443 143.963 114.543C144.785 119.642 152.26 133.249 153.089 135.73Z" fill="white" stroke="#263238" stroke-linecap="round" stroke-linejoin="round"/>
<path d="M185.574 95.9672C183.963 95.223 182.314 94.5641 180.633 93.9932C174.546 109.518 164.971 123.436 152.648 134.671C152.852 135.125 153.003 135.493 153.089 135.743C153.503 137.357 153.772 139.004 153.892 140.665C167.97 128.6 178.853 113.247 185.574 95.9672Z" fill="#263238"/>
<path d="M192.865 113.924C193.188 110.638 193.126 107.326 192.681 104.054C185.002 117.023 171.724 136.803 154.458 152.285C154.412 153.647 154.241 156.306 153.984 159.675C170.789 145.765 184.081 127.781 192.865 113.924Z" fill="#263238"/>
<path d="M188.529 193.331C188.845 186.89 189.615 171.262 190.029 161.543C171.835 165.024 159.044 161.715 153.964 159.931C153.188 170.176 151.733 186.679 151.141 193.331H188.529Z" fill="#263238" stroke="#263238" stroke-linecap="round" stroke-linejoin="round"/>
<path d="M165.769 107.239C170.762 107.239 174.81 103.324 174.81 98.4939C174.81 93.6643 170.762 89.7491 165.769 89.7491C160.775 89.7491 156.728 93.6643 156.728 98.4939C156.728 103.324 160.775 107.239 165.769 107.239Z" fill="#92E3A9" stroke="#263238" stroke-linecap="round" stroke-linejoin="round"/>
<path d="M157.504 87.479C157.504 87.479 159.018 92.8548 159.018 96.033C159.018 99.2111 162.465 106.515 168.118 103.205C173.77 99.8954 170.875 92.3153 169.907 89.9662C169.221 88.1717 168.669 86.3286 168.256 84.4522C168.256 84.4522 166.46 87.7422 162.992 87.9001C161.152 88.0098 159.306 87.8682 157.504 87.479Z" fill="white" stroke="#263238" stroke-linecap="round" stroke-linejoin="round"/>
<path d="M148.18 67.9627C148.18 67.9627 147.226 70.3381 148.417 72.2397C149.608 74.1413 151.24 76.747 151.24 76.747L151.003 66.3045C151.003 66.3045 148.654 64.4029 148.18 67.9627Z" fill="#263238" stroke="#263238" stroke-linecap="round" stroke-linejoin="round"/>
<path d="M151.24 74.3716C151.24 74.3716 149.338 75.0888 150.286 78.1683C151.233 81.2477 152.661 80.3068 152.661 80.3068L151.24 74.3716Z" fill="white" stroke="#263238" stroke-linecap="round" stroke-linejoin="round"/>
<path d="M149.503 69.0089C149.503 69.0089 151.161 77.5629 152.135 81.8268C153.109 86.0906 158.34 89.9596 161.097 90.7887C163.854 91.6178 167.44 88.5844 168.269 86.7947C169.098 85.0049 169.506 81.0043 169.506 81.0043C169.506 81.0043 172.539 79.7606 172.796 76.5891C173.053 73.4175 172.243 72.4568 170.592 72.0423L169.348 71.4896C169.348 71.4896 170.039 66.3901 168.249 63.2185C166.46 60.047 160.116 64.1858 156.807 65.1465C153.497 66.1071 149.088 65.8374 149.503 69.0089Z" fill="white" stroke="#263238" stroke-linecap="round" stroke-linejoin="round"/>
<path d="M157.504 75.2139C157.504 75.2139 156.846 80.1752 157.774 80.5897C158.702 81.0043 160.531 80.037 160.945 79.8988" stroke="#263238" stroke-linecap="round" stroke-linejoin="round"/>
<path d="M160.123 83.656C160.123 83.656 163.979 84.2087 165.499 79.7935" stroke="#263238" stroke-linecap="round" stroke-linejoin="round"/>
<path d="M152.813 74.1084C153.12 73.6328 153.553 73.2522 154.065 73.0093C154.576 72.7664 155.145 72.6708 155.708 72.7332" stroke="#263238" stroke-linecap="round" stroke-linejoin="round"/>
<path d="M159.432 72.0423C159.432 72.0423 162.189 70.6605 163.841 72.1805" stroke="#263238" stroke-linecap="round" stroke-linejoin="round"/>
<path d="M155.381 77.6883C155.757 77.6229 155.955 76.9605 155.825 76.2086C155.694 75.4567 155.283 74.9002 154.907 74.9655C154.532 75.0308 154.333 75.6933 154.463 76.4452C154.594 77.1971 155.005 77.7536 155.381 77.6883Z" fill="#263238"/>
<path d="M161.449 76.4505C161.825 76.3852 162.023 75.7227 161.893 74.9708C161.762 74.219 161.351 73.6624 160.975 73.7278C160.6 73.7931 160.401 74.4556 160.531 75.2075C160.662 75.9593 161.073 76.5159 161.449 76.4505Z" fill="#263238"/>
<path d="M165.222 65.2846C161.564 67.0018 157.726 68.3083 153.78 69.18C147.713 70.417 144.956 69.0418 145.226 66.0084C145.496 62.9751 153.359 56.3556 160.524 56.3556C167.69 56.3556 170.177 59.6456 170.592 63.1132C170.818 66.0963 170.818 69.0922 170.592 72.0752L169.348 73.865C169.348 73.865 169.664 72.47 167.69 71.3514C165.716 70.2328 164.255 68.1798 165.222 65.2846Z" fill="#263238" stroke="#263238" stroke-linecap="round" stroke-linejoin="round"/>
<path d="M203.59 75.1415C204.939 76.1745 203.354 80.491 207.802 83.9521C218.04 91.9139 223.962 97.3029 225.054 109.134C226.252 122.031 219.323 127.045 221.475 131.341C223.627 135.638 226.489 140.652 221.949 144.501C217.408 148.351 210.013 151.667 203.808 142.593C197.603 133.519 194.253 113.463 191.628 102.455C189.003 91.4467 184.706 86.2222 185.417 81.4451C186.114 76.8391 189.871 73.5491 194.365 72.7529C195.984 72.47 197.645 72.5368 199.236 72.9488C200.828 73.3608 202.312 74.1084 203.59 75.1415Z" fill="#263238" stroke="#263238" stroke-linecap="round" stroke-linejoin="round"/>
<path d="M191.26 120.984L172.125 134.98C172.125 134.98 141.482 145.929 139.679 146.488C137.876 147.048 129.283 148.568 127.48 149.535C125.677 150.502 122.216 156.885 121.656 158.411C121.54 158.625 121.496 158.87 121.53 159.111C121.565 159.351 121.677 159.574 121.849 159.746C122.02 159.918 122.243 160.029 122.484 160.064C122.724 160.098 122.97 160.054 123.183 159.938C123.597 159.517 127.618 155.635 128.868 155.496C130.118 155.358 131.224 155.22 131.224 155.22C131.224 155.22 128.032 157.997 127.894 158.826C127.756 159.655 128.453 159.379 129.283 158.964C130.112 158.55 133.303 157.438 134.547 155.22C135.79 153.003 136.902 151.752 138.981 150.923C141.061 150.094 168.197 144.212 173.053 143.383C177.909 142.554 195.379 132.058 196.214 131.92C197.05 131.782 193.898 120.984 191.26 120.984Z" fill="white" stroke="#263238" stroke-linecap="round" stroke-linejoin="round"/>
<path d="M187.522 138.882C187.693 139.395 187.18 146.613 186.831 159.162C186.568 168.788 184.285 185.896 183.232 193.331H219.81C220.073 185.791 220.402 168.545 218.284 161.392C215.533 152.114 212.441 150.206 211.414 146.1C210.388 141.994 208.835 119.287 206.255 110.693C203.676 102.1 195.945 96.941 194.74 95.0526C193.536 93.1641 189.753 82.1623 189.753 82.1623L183.225 87.6632C183.225 87.6632 188.035 95.3947 188.726 97.803C189.417 100.211 184.081 105.877 181.337 111.726C178.593 117.576 178.047 122.208 180.475 125.814C182.903 129.42 187.351 138.362 187.522 138.882Z" fill="#92E3A9"/>
<path d="M193.115 174.197L199.109 175.513L205.104 174.197L211.098 175.513L217.093 174.197L219.869 174.802L219.81 173.447L217.093 172.848L211.098 174.164L205.104 172.848L199.109 174.164L193.115 172.848L187.127 174.164L185.686 173.848C185.64 174.289 185.594 174.723 185.542 175.164L187.127 175.513L193.115 174.197Z" fill="white"/>
<path d="M199.735 129.163L193.74 130.479L187.746 129.163L183.061 130.19L183.719 131.394L187.752 130.512L193.747 131.828L199.741 130.512L205.736 131.828L209.526 130.993C209.473 130.558 209.427 130.117 209.374 129.677L205.736 130.479L199.735 129.163Z" fill="white"/>
<path d="M193.115 184.218L199.109 185.534L205.104 184.218L211.098 185.534L217.093 184.218L219.994 184.876C219.994 184.435 219.994 183.988 219.994 183.56L217.086 182.902L211.092 184.218L205.097 182.902L199.103 184.218L193.109 182.902L187.121 184.218L184.528 183.646C184.476 184.093 184.416 184.527 184.364 184.962L187.121 185.567L193.115 184.218Z" fill="white"/>
<path d="M219.942 188.515L217.093 187.89L211.098 189.206L205.104 187.89L199.11 189.206L193.115 187.89L187.127 189.206L183.897 188.495C183.837 188.943 183.778 189.383 183.725 189.811L187.127 190.555L193.115 189.239L199.11 190.555L205.104 189.239L211.098 190.555L217.093 189.239L219.915 189.864C219.922 189.423 219.935 188.975 219.942 188.515Z" fill="white"/>
<path d="M179.58 116.313L181.751 116.786L187.746 115.47L193.74 116.786L199.735 115.47L205.729 116.786L207.525 116.392C207.446 115.951 207.367 115.516 207.288 115.076L205.729 115.418L199.735 114.102L193.74 115.418L187.746 114.102L181.751 115.418L179.975 115.029C179.83 115.472 179.699 115.9 179.58 116.313Z" fill="white"/>
<path d="M199.735 119.135L193.74 120.451L187.746 119.135L181.751 120.451L178.962 119.839C178.935 120.289 178.935 120.739 178.962 121.188L181.751 121.8L187.746 120.484L193.74 121.8L199.735 120.484L205.729 121.8L208.295 121.234C208.229 120.794 208.17 120.359 208.104 119.918L205.729 120.438L199.735 119.135Z" fill="white"/>
<path d="M199.735 124.149L193.74 125.465L187.746 124.149L181.751 125.465L180.041 125.09C180.172 125.334 180.317 125.577 180.475 125.814C180.633 126.051 180.824 126.347 181.008 126.65L181.751 126.814L187.746 125.498L193.74 126.814L199.735 125.498L205.729 126.814L208.94 126.11C208.887 125.669 208.828 125.235 208.776 124.794L205.729 125.452L199.735 124.149Z" fill="white"/>
<path d="M193.115 179.211L199.11 180.527L205.104 179.211L211.098 180.527L217.093 179.211L219.988 179.869V178.52L217.112 177.862L211.118 179.178L205.124 177.862L199.129 179.178L193.135 177.862L187.147 179.178L185.173 178.737L185.015 180.053L187.167 180.527L193.115 179.211Z" fill="white"/>
<path d="M187.522 138.882C187.693 139.395 187.18 146.613 186.831 159.162C186.568 168.788 184.285 185.896 183.232 193.331H219.81C220.073 185.791 220.402 168.545 218.284 161.392C215.533 152.114 212.441 150.206 211.414 146.1C210.388 141.994 208.835 119.287 206.255 110.693C203.676 102.1 195.945 96.941 194.74 95.0526C193.536 93.1641 189.753 82.1623 189.753 82.1623L183.225 87.6632C183.225 87.6632 188.035 95.3947 188.726 97.803C189.417 100.211 184.081 105.877 181.337 111.726C178.593 117.576 178.047 122.208 180.475 125.814C182.903 129.42 187.351 138.362 187.522 138.882Z" stroke="#263238" stroke-linecap="round" stroke-linejoin="round"/>
<path d="M183.219 127.781C183.219 127.781 185.43 132.21 192.812 130.486" stroke="#263238" stroke-linecap="round" stroke-linejoin="round"/>
<path d="M203.386 156.312C203.386 156.312 192.319 169.841 187.397 180.658" stroke="#263238" stroke-linecap="round" stroke-linejoin="round"/>
<path d="M191.582 167.387C191.582 167.387 186.904 175.993 185.66 181.402" stroke="#263238" stroke-linecap="round" stroke-linejoin="round"/>
<path d="M185.331 110.391C188.904 108.417 193.464 99.8625 195.451 98.2833L196.806 97.1976C196.049 96.5519 195.357 95.8334 194.74 95.0526C193.536 93.1641 189.753 82.1623 189.753 82.1623L183.225 87.6632C183.225 87.6632 188.035 95.3947 188.726 97.803C189.332 99.9283 185.245 104.607 182.39 109.693C182.725 110.634 183.515 111.397 185.331 110.391Z" fill="white" stroke="#263238" stroke-linecap="round" stroke-linejoin="round"/>
<path d="M177.461 68.93C176.699 70.7364 176.318 72.6809 176.343 74.6414C176.461 76.3785 176.836 77.7537 176.139 79.4711C175.731 80.4581 174.349 81.7149 174.54 82.8532C174.711 83.8797 177.29 84.2285 177.29 84.2285C177.29 84.2285 179.87 92.3021 181.238 92.4732C182.607 92.6443 185.706 91.8152 189.654 88.5252C193.602 85.2352 188.799 73.3912 185.357 70.3052C181.916 67.2192 179.179 66.8638 177.461 68.93Z" fill="white" stroke="#263238" stroke-linecap="round" stroke-linejoin="round"/>
<path d="M178.633 79.7014C178.88 79.7014 179.08 79.1358 179.08 78.4381C179.08 77.7403 178.88 77.1747 178.633 77.1747C178.385 77.1747 178.185 77.7403 178.185 78.4381C178.185 79.1358 178.385 79.7014 178.633 79.7014Z" fill="#263238"/>
<path d="M177.442 75.5363C177.442 75.5363 177.889 73.7465 179.679 75.0888" stroke="#263238" stroke-linecap="round" stroke-linejoin="round"/>
<path d="M178.336 85.959C178.336 85.959 179.527 86.2617 180.87 84.643" stroke="#263238" stroke-linecap="round" stroke-linejoin="round"/>
<path d="M181.245 59.8167C181.245 59.8167 174.882 59.9943 173.849 64.1134C172.816 68.2325 177.461 71.8515 180.725 73.5689C183.989 75.2862 186.91 78.0367 186.91 80.9582C186.91 83.8797 187.088 87.3211 189.49 90.4137C191.891 93.5063 197.386 96.0856 201.695 95.9145C206.005 95.7435 201.353 85.63 203.755 78.392C206.157 71.154 203.097 63.9555 198.254 60.8629C193.411 57.7703 181.245 59.8167 181.245 59.8167Z" fill="#263238" stroke="#263238" stroke-linecap="round" stroke-linejoin="round"/>
<path d="M220.093 122.221C220.036 123.123 219.895 124.017 219.672 124.893" stroke="white" stroke-linecap="round" stroke-linejoin="round"/>
<path d="M179.784 70.496C180.968 72.47 183.212 74.5756 187.43 75.76C196.642 78.392 200.149 84.7549 200.149 90.236C200.149 95.7171 200.59 99.6651 209.361 104.054C211.947 105.347 214.213 107.199 215.997 109.474C217.78 111.75 219.035 114.394 219.672 117.214" stroke="white" stroke-linecap="round" stroke-linejoin="round"/>
<path d="M178.435 66.1071C178.437 66.4892 178.474 66.8704 178.547 67.2455" stroke="white" stroke-linecap="round" stroke-linejoin="round"/>
<path d="M190.72 66.1071C190.72 66.1071 201.689 71.5949 201.465 79.05C201.241 86.5051 201.906 93.526 208.703 97.6911C215.5 101.856 222.521 104.495 224.936 112.825" stroke="white" stroke-linecap="round" stroke-linejoin="round"/>
<path d="M196.839 106.028C196.839 106.028 193.924 107.133 192.404 112.819C190.884 118.504 197.116 128.486 198.09 132.927C199.063 137.369 200.031 144.153 200.031 144.153C200.031 144.153 178.257 161.919 175.073 164.676C171.888 167.433 170.217 169.249 170.217 169.249C170.217 169.249 162.321 176.184 161.623 177.572C160.926 178.961 158.991 186.166 159.682 186.442C160.373 186.719 161.623 183.672 161.623 183.119C161.623 182.567 163.005 179.513 163.005 179.513C163.005 179.513 161.9 186.567 161.9 186.962C161.9 187.357 163.005 186.962 163.143 186.403C163.281 185.843 164.808 180.027 164.808 180.027C164.808 180.027 163.979 186.541 164.532 187.265C165.084 187.988 166.058 183.106 166.058 183.106L167.164 179.224C167.164 179.224 166.887 186.014 167.447 186.291C168.006 186.567 169.249 179.638 169.249 179.638C169.249 179.638 171.743 174.644 172.711 172.98C173.262 172.074 173.683 171.095 173.961 170.071C173.961 170.071 186.858 162.998 194.898 159.115C202.939 155.233 209.736 148.022 210.565 146.778C211.394 145.534 209.591 128.058 208.21 120.57C206.828 113.082 203.913 104.054 196.839 106.028Z" fill="white" stroke="#263238" stroke-linecap="round" stroke-linejoin="round"/>
<path d="M151.793 97.0924C151.793 97.0924 146.831 100.468 142.864 103.672C138.896 106.877 139.488 113.2 139.488 114.589C139.488 115.977 139.291 122.327 139.291 122.327L136.31 128.676C136.31 128.676 131.75 132.848 130.756 133.842C129.763 134.835 124.012 146.14 124.012 146.14L122.624 148.114L130.184 149.088C133.007 145.94 136.129 143.075 139.508 140.534C144.449 136.954 148.608 127.084 148.812 125.867C149.65 122.542 150.242 119.159 150.582 115.747" fill="white"/>
<path d="M151.793 97.0924C151.793 97.0924 146.831 100.468 142.864 103.672C138.896 106.877 139.488 113.2 139.488 114.589C139.488 115.977 139.291 122.327 139.291 122.327L136.31 128.676C136.31 128.676 131.75 132.848 130.756 133.842C129.763 134.835 124.012 146.14 124.012 146.14L122.624 148.114L130.184 149.088C133.007 145.94 136.129 143.075 139.508 140.534C144.449 136.954 148.608 127.084 148.812 125.867C149.65 122.542 150.242 119.159 150.582 115.747" stroke="#263238" stroke-linecap="round" stroke-linejoin="round"/>
<path d="M149.266 123.748C145.93 118.273 141.37 118.984 139.343 119.668C139.297 121.116 139.264 122.3 139.264 122.3L136.284 128.65C136.284 128.65 131.724 132.822 130.73 133.815C129.737 134.809 123.986 146.113 123.986 146.113L122.597 148.087L130.184 149.088C133.007 145.94 136.129 143.075 139.508 140.534C144.449 136.954 148.608 127.084 148.812 125.867C148.884 125.465 149.069 124.728 149.266 123.748Z" fill="white" stroke="#263238" stroke-linecap="round" stroke-linejoin="round"/>
<path d="M126.841 143.534C126.841 143.534 121.913 147.561 120.919 148.837C119.926 150.114 119.149 157.622 119.544 158.168C119.939 158.714 122.696 160.181 123.88 158.898C125.065 157.615 129.401 151.43 129.401 151.43C129.401 151.43 126.111 155.878 128.46 155.628C130.809 155.378 132.158 151.759 133.54 150.114C134.922 148.469 134.724 148.285 133.54 145.909L132.362 143.534" fill="white"/>
<path d="M126.841 143.534C126.841 143.534 121.913 147.561 120.919 148.837C119.926 150.114 119.149 157.622 119.544 158.168C119.939 158.714 122.696 160.181 123.88 158.898C125.065 157.615 129.401 151.43 129.401 151.43C129.401 151.43 126.111 155.878 128.46 155.628C130.809 155.378 132.158 151.759 133.54 150.114C134.922 148.469 134.724 148.285 133.54 145.909L132.362 143.534" stroke="#263238" stroke-linecap="round" stroke-linejoin="round"/>
<path d="M119.551 158.161C119.551 158.161 122.058 149.607 123.058 148.949" stroke="#263238" stroke-linecap="round" stroke-linejoin="round"/>
<path d="M120.729 158.786C120.729 158.786 123.637 150.746 125.137 149.081" stroke="#263238" stroke-linecap="round" stroke-linejoin="round"/>
<path d="M122.288 159.359C122.288 159.359 125.44 151.463 127.506 149.548" stroke="#263238" stroke-linecap="round" stroke-linejoin="round"/>
<path d="M129.401 151.43C129.401 151.43 131.079 149.943 131.336 149.048Z" fill="white"/>
<path d="M129.401 151.43C129.401 151.43 131.079 149.943 131.336 149.048" stroke="#263238" stroke-linecap="round" stroke-linejoin="round"/>
</g>
<defs>
<clipPath id="clip0_1_6">
<rect width="263" height="194" fill="white"/>
</clipPath>
</defs>
</svg>
